<?xml version="1.0" encoding="utf-8"?>
<!-- Generator: Adobe Illustrator 23.0.0, SVG Export Plug-In . SVG Version: 6.00 Build 0)  -->
<svg version="1.1" id="Capa_1" xmlns="http://www.w3.org/2000/svg" xmlns:xlink="http://www.w3.org/1999/xlink" x="0px" y="0px"
	 viewBox="0 0 20 20" style="enable-background:new 0 0 20 20;" xml:space="preserve">
<style type="text/css">
	.st0{fill:#1C819E;}
</style>
<path class="st0" d="M8,20c-1.1,0-2-0.9-2-2s0.9-2,2-2s2,0.9,2,2S9.1,20,8,20z M8,17c-0.6,0-1,0.4-1,1s0.4,1,1,1s1-0.4,1-1
	S8.6,17,8,17z"/>
<path class="st0" d="M15,20c-1.1,0-2-0.9-2-2s0.9-2,2-2s2,0.9,2,2S16.1,20,15,20z M15,17c-0.6,0-1,0.4-1,1s0.4,1,1,1s1-0.4,1-1
	S15.6,17,15,17z"/>
<path class="st0" d="M17.5,4.5c-0.3-0.3-0.6-0.5-1-0.5H4.3L4.2,3.4C4,2.6,3.3,2,2.5,2h-1C1.2,2,1,2.2,1,2.5S1.2,3,1.5,3h1
	c0.3,0,0.6,0.3,0.7,0.6l1.7,10C5,14.4,5.7,15,6.5,15h10c0.3,0,0.5-0.2,0.5-0.5S16.8,14,16.5,14h-10c-0.3,0-0.6-0.3-0.7-0.6L5.6,12
	l10-0.9c0.8-0.1,1.5-0.7,1.6-1.5l0.7-4C17.9,5.2,17.8,4.8,17.5,4.5L17.5,4.5z M16.8,5.4l-0.7,4c-0.1,0.3-0.4,0.6-0.7,0.7L5.4,11
	l-1-6h12.1c0.1,0,0.2,0,0.3,0.1S16.9,5.3,16.8,5.4L16.8,5.4z"/>
</svg>
