<?xml version="1.0" encoding="utf-8"?>
<!-- Generator: Adobe Illustrator 23.0.0, SVG Export Plug-In . SVG Version: 6.00 Build 0)  -->
<svg version="1.1" id="Capa_1" xmlns="http://www.w3.org/2000/svg" xmlns:xlink="http://www.w3.org/1999/xlink" x="0px" y="0px"
	 viewBox="0 0 20 20" style="enable-background:new 0 0 20 20;" xml:space="preserve">
<style type="text/css">
	.st0{fill:#1C819E;}
</style>
<path class="st0" d="M16,3.5V3c0-0.4-0.2-0.7-0.7-1c-0.3-0.2-0.8-0.4-1.4-0.5C12.7,1.2,11.1,1,9.5,1S6.3,1.2,5.1,1.5
	C4.5,1.6,4.1,1.8,3.7,2C3.2,2.3,3,2.6,3,3v0.5c0,2.6,1.6,5,4,6v2c-2.4,1-4,3.4-4,6V18c0,0.4,0.2,0.7,0.7,1c0.3,0.2,0.8,0.4,1.4,0.5
	C6.3,19.8,7.9,20,9.5,20s3.2-0.2,4.4-0.5c0.6-0.1,1.1-0.3,1.4-0.5c0.5-0.3,0.7-0.6,0.7-1v-0.5c0-2.6-1.6-5-4-6v-2
	C14.4,8.5,16,6.1,16,3.5z M5.6,2.4C6.7,2.1,8.1,2,9.5,2s2.8,0.1,3.9,0.4C14.5,2.6,14.9,2.9,15,3c-0.1,0.1-0.4,0.4-1.6,0.6
	C12.3,3.9,10.9,4,9.5,4S6.7,3.9,5.6,3.6C4.5,3.4,4.1,3.1,4,3C4.1,2.9,4.5,2.6,5.6,2.4z M11.3,12.3c2.2,0.8,3.7,2.9,3.7,5.2V18
	c0,0.1-0.3,0.4-1.6,0.7c-1.1,0.2-2.4,0.4-3.9,0.4s-2.8-0.1-3.9-0.4C4.3,18.3,4,18,4,18v-0.5c0-2.3,1.5-4.4,3.7-5.2
	C7.9,12.2,8,12.1,8,11.8V9.2c0-0.2-0.1-0.4-0.3-0.5C5.7,8,4.3,6.2,4,4.2c0.3,0.1,0.7,0.3,1.1,0.4C6.3,4.8,7.9,5,9.5,5
	s3.2-0.2,4.4-0.5c0.4-0.1,0.8-0.2,1.1-0.4c-0.3,2-1.6,3.8-3.6,4.5C11.1,8.8,11,8.9,11,9.2v2.7C11,12.1,11.1,12.2,11.3,12.3z"/>
<path class="st0" d="M13.7,16.5c-2.3-0.8-3.7-2.7-3.7-5v-3c0.6-0.1,1.2-0.2,1.7-0.5c0.2-0.1,0.3-0.4,0.2-0.7S11.5,7,11.3,7.1
	c-0.6,0.3-1.2,0.4-1.8,0.4S8.3,7.4,7.7,7.1C7.5,7,7.2,7.1,7.1,7.3S7,7.9,7.3,8C7.8,8.3,8.4,8.4,9,8.5v3c0,2.3-1.4,4.2-3.7,5
	C5.1,16.6,5,16.8,5,17s0.2,0.4,0.4,0.5c1,0.2,2.5,0.5,4.1,0.5s3.1-0.3,4.1-0.5c0.2,0,0.4-0.2,0.4-0.5S13.9,16.6,13.7,16.5z M9.5,17
	c-0.9,0-1.7-0.1-2.4-0.2c0.7-0.4,1.2-1,1.7-1.6c0.3-0.4,0.5-0.8,0.7-1.3c0.2,0.4,0.4,0.9,0.7,1.3c0.5,0.6,1,1.2,1.7,1.6
	C11.2,16.9,10.4,17,9.5,17z"/>
</svg>
