<?xml version="1.0" encoding="utf-8"?>
<!-- Generator: Adobe Illustrator 23.0.0, SVG Export Plug-In . SVG Version: 6.00 Build 0)  -->
<svg version="1.1" id="Capa_1" xmlns="http://www.w3.org/2000/svg" xmlns:xlink="http://www.w3.org/1999/xlink" x="0px" y="0px"
	 viewBox="0 0 20 20" style="enable-background:new 0 0 20 20;" xml:space="preserve">
<style type="text/css">
	.st0{fill:#1C819E;}
</style>
<path class="st0" d="M5.5,16C4.7,16,4,15.3,4,14.5S4.7,13,5.5,13S7,13.7,7,14.5S6.3,16,5.5,16z M5.5,14C5.2,14,5,14.2,5,14.5
	S5.2,15,5.5,15S6,14.8,6,14.5S5.8,14,5.5,14z"/>
<path class="st0" d="M14.5,16c-0.8,0-1.5-0.7-1.5-1.5s0.7-1.5,1.5-1.5s1.5,0.7,1.5,1.5S15.3,16,14.5,16z M14.5,14
	c-0.3,0-0.5,0.2-0.5,0.5s0.2,0.5,0.5,0.5s0.5-0.2,0.5-0.5S14.8,14,14.5,14z"/>
<path class="st0" d="M17,11.9c-0.1-0.8-0.6-3.2-1-4.1c-0.3-0.6-1.1-1.1-2.3-1.4C12.6,6.1,11.3,6,10,6S7.4,6.1,6.4,6.4
	c-1.2,0.3-2,0.8-2.3,1.4c-0.5,0.9-0.9,3.3-1,4.1c-0.7,0.5-1,1.2-1,2.1v2.5c0,0.7,0.4,1.2,1,1.4V19c0,0.6,0.4,1,1,1h1
	c0.6,0,1-0.4,1-1v-1h8v1c0,0.6,0.4,1,1,1h1c0.6,0,1-0.4,1-1v-1.1c0.6-0.2,1-0.8,1-1.4V14C18,13.1,17.7,12.4,17,11.9z M4.9,8.2
	C5.2,7.6,7.1,7,10,7s4.8,0.6,5.1,1.2c0.3,0.6,0.6,2.1,0.8,3.2c-0.1,0-0.2-0.1-0.3-0.1c-0.3-0.1-0.6-0.1-0.9-0.2l-2.9-2.1
	c-0.2-0.2-0.5-0.1-0.7,0.1S11,9.7,11.2,9.9l1.6,1.1c-0.9,0-1.8,0-2.8,0c-0.1,0-0.2,0-0.3,0L6.8,9.1C6.5,8.9,6.2,9,6.1,9.2
	S6,9.8,6.2,9.9L7.9,11c-1.3,0-2.5,0.1-3.4,0.3c-0.1,0-0.2,0.1-0.3,0.1C4.3,10.3,4.7,8.8,4.9,8.2z M5,19H4v-1h1V19z M15,19v-1h1v1H15
	z M17,16.5c0,0.3-0.2,0.5-0.5,0.5h-13C3.2,17,3,16.8,3,16.5V14c0-0.9,0.5-1.4,1.7-1.7C5.9,12,7.8,12,10,12s4.1,0,5.3,0.3
	c1.2,0.3,1.7,0.8,1.7,1.7V16.5z"/>
</svg>
