<?xml version="1.0" encoding="utf-8"?>
<!-- Generator: Adobe Illustrator 23.0.0, SVG Export Plug-In . SVG Version: 6.00 Build 0)  -->
<svg version="1.1" id="Capa_1" xmlns="http://www.w3.org/2000/svg" xmlns:xlink="http://www.w3.org/1999/xlink" x="0px" y="0px"
	 viewBox="0 0 20 20" style="enable-background:new 0 0 20 20;" xml:space="preserve">
<style type="text/css">
	.st0{fill:#80E3F9;}
</style>
<path class="st0" d="M18.5,5h-3C15.8,4.6,16,4.1,16,3.5C16,2.1,14.9,1,13.5,1s-2.6,1.1-3.1,1.8C10,3.2,9.7,3.6,9.5,4
	C9.3,3.6,9,3.2,8.6,2.8C8.1,2.1,6.9,1,5.5,1S3,2.1,3,3.5C3,4.1,3.2,4.6,3.5,5h-3C0.2,5,0,5.2,0,5.5v3C0,8.8,0.2,9,0.5,9H1v9.5
	C1,19.3,1.7,20,2.5,20h14c0.8,0,1.5-0.7,1.5-1.5V9h0.5C18.8,9,19,8.8,19,8.5v-3C19,5.2,18.8,5,18.5,5z M11.1,3.4
	C11.9,2.5,12.8,2,13.5,2C14.3,2,15,2.7,15,3.5S14.3,5,13.5,5h-3.4C10.3,4.6,10.6,4,11.1,3.4z M11,19H8V6h3V19z M4,3.5
	C4,2.7,4.7,2,5.5,2c0.7,0,1.6,0.5,2.4,1.4C8.4,4,8.7,4.6,8.9,5H5.5C4.7,5,4,4.3,4,3.5z M1,6h6v2H1V6z M2,18.5V9h5v10H2.5
	C2.2,19,2,18.8,2,18.5z M17,18.5c0,0.3-0.2,0.5-0.5,0.5H12V9h5V18.5z M18,8h-6V6h6V8z"/>
</svg>
